custom-analysis
version=1
nRows=5
nColumns=42
inDegrees=no

This file contains tibia displacement and acting force.

Units are S.I. units (seconds, meters, Newtons, ...)
Angles are in degrees.

endheader
time	APT	SIT	knee_angle	aACL_R_force	pACL_R_force	aPCL_R_force	pPCL_R_force	aMCL_R_force	mMCL_R_force	pMCL_R_force	aLCL_R_force	mLCL_R_force	pLCL_R_force	aACL_R_length	pACL_R_length	aPCL_R_length	pPCL_R_length	aMCL_R_length	mMCL_R_length	pMCL_R_length	aLCL_R_length	mLCL_R_length	pLCL_R_length	aACL_R_strain	pACL_R_strain	aPCL_R_strain	pPCL_R_strain	aMCL_R_strain	mMCL_R_strain	pMCL_R_strain	aLCL_R_strain	mLCL_R_strain	pLCL_R_strain	femur_lat_meniscii_force_r	femur_lat_meniscii_torque_r	femur_med_meniscii_force_r	femur_med_meniscii_torque_r	femur_lat_tibia_force_r	femur_lat_tibia_torque_r	femur_med_tibia_force_r	femur_med_tibia_torque_r
      0.75992235	      0.00551294	      0.00134171	     89.99998384	     18.90182695	      2.45541763	    781.41397966	    315.10880389	     29.74829439	      0.00000000	      0.00000000	      0.00000000	      0.00000000	      0.00000000	      0.03308150	      0.02605298	      0.03613476	      0.03249588	      0.06198773	      0.05977187	      0.05622467	      0.04886991	      0.04319534	      0.03795396	      0.05002302	      0.01536621	      0.16206487	      0.08003522	      0.06825662	     -0.00036170	     -0.07415568	     -0.12696766	     -0.23301824	     -0.27489491	    213.24330717	     86.79279830	    104.64860678	     34.01848965	     10.61150713	      0.37755106	    517.83468411	     10.22278889
      0.76248176	      0.00551226	      0.00134064	     89.99998384	     18.98568896	      2.54263630	    782.01658868	    316.01522053	     30.20271302	      0.00000000	      0.00000000	      0.00000000	      0.00000000	      0.00000000	      0.03308271	      0.02605474	      0.03613665	      0.03249725	      0.06198601	      0.05977006	      0.05622282	      0.04887550	      0.04320095	      0.03795952	      0.05006150	      0.01543502	      0.16212571	      0.08008050	      0.06822706	     -0.00039200	     -0.07418614	     -0.12686773	     -0.23291853	     -0.27478868	    212.68387255	     86.56397970	    104.51928772	     33.96778328	     10.16164207	      0.36162129	    517.88253884	     10.22233816
      0.76576485	      0.00551102	      0.00133915	     89.99998384	     18.88668459	      2.43477404	    782.37602705	    316.01825063	     29.87955570	      0.00000000	      0.00000000	      0.00000000	      0.00000000	      0.00000000	      0.03308379	      0.02605656	      0.03613941	      0.03249938	      0.06198393	      0.05976792	      0.05622071	      0.04888288	      0.04320839	      0.03796696	      0.05009575	      0.01550568	      0.16221451	      0.08015134	      0.06819119	     -0.00042775	     -0.07422095	     -0.12673588	     -0.23278643	     -0.27464660	    212.21932593	     86.37421585	    104.61819427	     34.01063570	      9.60627917	      0.34186769	    518.31929916	     10.23092161
      0.76832163	      0.00551008	      0.00133893	     89.99998384	     18.86959558	      2.41458786	    782.55963239	    316.05868364	     29.80081669	      0.00000000	      0.00000000	      0.00000000	      0.00000000	      0.00000000	      0.03308410	      0.02605738	      0.03614061	      0.03250011	      0.06198141	      0.05976534	      0.05621814	      0.04888761	      0.04321317	      0.03797172	      0.05010561	      0.01553775	      0.16225311	      0.08017582	      0.06814774	     -0.00047097	     -0.07426328	     -0.12665134	     -0.23270171	     -0.27455557	    211.84573296	     86.22147090	    104.75863432	     34.06938977	      9.26612028	      0.32977255	    519.70148237	     10.26009169
      0.76903000	      0.00550982	      0.00133887	     89.99998384	     18.87152330	      2.41673671	    782.62581794	    316.10974645	     29.80964518	      0.00000000	      0.00000000	      0.00000000	      0.00000000	      0.00000000	      0.03308418	      0.02605759	      0.03614094	      0.03250032	      0.06198072	      0.05976463	      0.05621744	      0.04888891	      0.04321448	      0.03797303	      0.05010792	      0.01554601	      0.16226383	      0.08018270	      0.06813585	     -0.00048279	     -0.07427484	     -0.12662810	     -0.23267842	     -0.27453051	    211.72405109	     86.17173675	    104.78712558	     34.08164481	      9.17311238	      0.32646789	    520.05879684	     10.26729192
